<mxfile host="app.diagrams.net" agent="Mozilla/5.0 (Windows NT 10.0; Win64; x64) AppleWebKit/537.36 (KHTML, like Gecko) Chrome/131.0.0.0 Safari/537.36" version="26.0.5">
  <diagram name="Strona-1" id="EALE7FQIIP7efcNNya-I">
    <mxGraphModel dx="1805" dy="1131" grid="1" gridSize="10" guides="1" tooltips="1" connect="1" arrows="1" fold="1" page="1" pageScale="1" pageWidth="1654" pageHeight="1169" math="0" shadow="0">
      <root>
        <mxCell id="0" />
        <mxCell id="1" parent="0" />
        <mxCell id="2b9cVBGXTiuE7diM77-V-1" value="Legnda" style="text;html=1;align=center;verticalAlign=middle;whiteSpace=wrap;rounded=0;" vertex="1" parent="1">
          <mxGeometry x="1150" y="420" width="160" height="30" as="geometry" />
        </mxCell>
        <mxCell id="2b9cVBGXTiuE7diM77-V-2" value="Guest" style="rounded=1;whiteSpace=wrap;html=1;fillColor=#d5e8d4;strokeColor=#82b366;" vertex="1" parent="1">
          <mxGeometry x="1180" y="460" width="110" height="40" as="geometry" />
        </mxCell>
        <mxCell id="2b9cVBGXTiuE7diM77-V-3" value="Auth" style="rounded=1;whiteSpace=wrap;html=1;fillColor=#e1d5e7;strokeColor=#9673a6;" vertex="1" parent="1">
          <mxGeometry x="1180" y="510" width="110" height="40" as="geometry" />
        </mxCell>
        <mxCell id="2b9cVBGXTiuE7diM77-V-4" value="User" style="rounded=1;whiteSpace=wrap;html=1;fillColor=#fff2cc;strokeColor=#d6b656;" vertex="1" parent="1">
          <mxGeometry x="1180" y="560" width="110" height="40" as="geometry" />
        </mxCell>
        <mxCell id="2b9cVBGXTiuE7diM77-V-5" value="Company" style="rounded=1;whiteSpace=wrap;html=1;fillColor=#ffe6cc;strokeColor=#d79b00;" vertex="1" parent="1">
          <mxGeometry x="1180" y="610" width="110" height="40" as="geometry" />
        </mxCell>
        <mxCell id="2b9cVBGXTiuE7diM77-V-10" style="rounded=0;orthogonalLoop=1;jettySize=auto;html=1;elbow=vertical;edgeStyle=orthogonalEdgeStyle;" edge="1" parent="1" source="2b9cVBGXTiuE7diM77-V-6" target="2b9cVBGXTiuE7diM77-V-9">
          <mxGeometry relative="1" as="geometry" />
        </mxCell>
        <mxCell id="2b9cVBGXTiuE7diM77-V-23" style="rounded=0;orthogonalLoop=1;jettySize=auto;html=1;elbow=vertical;edgeStyle=orthogonalEdgeStyle;" edge="1" parent="1" source="2b9cVBGXTiuE7diM77-V-6" target="2b9cVBGXTiuE7diM77-V-7">
          <mxGeometry relative="1" as="geometry" />
        </mxCell>
        <mxCell id="2b9cVBGXTiuE7diM77-V-6" value="Index" style="rounded=1;whiteSpace=wrap;html=1;fillColor=#d5e8d4;strokeColor=#82b366;" vertex="1" parent="1">
          <mxGeometry x="620" y="55" width="110" height="40" as="geometry" />
        </mxCell>
        <mxCell id="2b9cVBGXTiuE7diM77-V-7" value="About" style="rounded=1;whiteSpace=wrap;html=1;fillColor=#d5e8d4;strokeColor=#82b366;" vertex="1" parent="1">
          <mxGeometry x="910" y="55" width="110" height="40" as="geometry" />
        </mxCell>
        <mxCell id="2b9cVBGXTiuE7diM77-V-12" style="rounded=0;orthogonalLoop=1;jettySize=auto;html=1;elbow=vertical;edgeStyle=orthogonalEdgeStyle;" edge="1" parent="1" source="2b9cVBGXTiuE7diM77-V-9" target="2b9cVBGXTiuE7diM77-V-11">
          <mxGeometry relative="1" as="geometry" />
        </mxCell>
        <mxCell id="2b9cVBGXTiuE7diM77-V-15" style="rounded=0;orthogonalLoop=1;jettySize=auto;html=1;elbow=vertical;edgeStyle=orthogonalEdgeStyle;" edge="1" parent="1" source="2b9cVBGXTiuE7diM77-V-9" target="2b9cVBGXTiuE7diM77-V-14">
          <mxGeometry relative="1" as="geometry" />
        </mxCell>
        <mxCell id="2b9cVBGXTiuE7diM77-V-22" style="rounded=0;orthogonalLoop=1;jettySize=auto;html=1;elbow=vertical;edgeStyle=orthogonalEdgeStyle;" edge="1" parent="1" source="2b9cVBGXTiuE7diM77-V-9" target="2b9cVBGXTiuE7diM77-V-20">
          <mxGeometry relative="1" as="geometry" />
        </mxCell>
        <mxCell id="2b9cVBGXTiuE7diM77-V-32" style="edgeStyle=orthogonalEdgeStyle;rounded=0;orthogonalLoop=1;jettySize=auto;html=1;" edge="1" parent="1" source="2b9cVBGXTiuE7diM77-V-9" target="2b9cVBGXTiuE7diM77-V-19">
          <mxGeometry relative="1" as="geometry" />
        </mxCell>
        <mxCell id="2b9cVBGXTiuE7diM77-V-9" value="Login" style="rounded=1;whiteSpace=wrap;html=1;fillColor=#e1d5e7;strokeColor=#9673a6;" vertex="1" parent="1">
          <mxGeometry x="620" y="230" width="110" height="40" as="geometry" />
        </mxCell>
        <mxCell id="2b9cVBGXTiuE7diM77-V-11" value="Reset-password" style="rounded=1;whiteSpace=wrap;html=1;fillColor=#e1d5e7;strokeColor=#9673a6;" vertex="1" parent="1">
          <mxGeometry x="710" y="320" width="110" height="40" as="geometry" />
        </mxCell>
        <mxCell id="2b9cVBGXTiuE7diM77-V-18" style="rounded=0;orthogonalLoop=1;jettySize=auto;html=1;elbow=vertical;edgeStyle=orthogonalEdgeStyle;" edge="1" parent="1" source="2b9cVBGXTiuE7diM77-V-14" target="2b9cVBGXTiuE7diM77-V-17">
          <mxGeometry relative="1" as="geometry" />
        </mxCell>
        <mxCell id="2b9cVBGXTiuE7diM77-V-14" value="Register" style="rounded=1;whiteSpace=wrap;html=1;fillColor=#e1d5e7;strokeColor=#9673a6;" vertex="1" parent="1">
          <mxGeometry x="530" y="320" width="110" height="40" as="geometry" />
        </mxCell>
        <mxCell id="2b9cVBGXTiuE7diM77-V-30" style="rounded=0;orthogonalLoop=1;jettySize=auto;html=1;elbow=vertical;edgeStyle=orthogonalEdgeStyle;" edge="1" parent="1" source="2b9cVBGXTiuE7diM77-V-17" target="2b9cVBGXTiuE7diM77-V-19">
          <mxGeometry relative="1" as="geometry">
            <mxPoint x="520" y="550" as="targetPoint" />
          </mxGeometry>
        </mxCell>
        <mxCell id="2b9cVBGXTiuE7diM77-V-31" style="rounded=0;orthogonalLoop=1;jettySize=auto;html=1;elbow=vertical;edgeStyle=orthogonalEdgeStyle;" edge="1" parent="1" source="2b9cVBGXTiuE7diM77-V-17" target="2b9cVBGXTiuE7diM77-V-20">
          <mxGeometry relative="1" as="geometry" />
        </mxCell>
        <mxCell id="2b9cVBGXTiuE7diM77-V-17" value="Role-choice" style="rounded=1;whiteSpace=wrap;html=1;fillColor=#e1d5e7;strokeColor=#9673a6;" vertex="1" parent="1">
          <mxGeometry x="530" y="440" width="110" height="40" as="geometry" />
        </mxCell>
        <mxCell id="2b9cVBGXTiuE7diM77-V-37" style="edgeStyle=orthogonalEdgeStyle;rounded=0;orthogonalLoop=1;jettySize=auto;html=1;" edge="1" parent="1" source="2b9cVBGXTiuE7diM77-V-19" target="2b9cVBGXTiuE7diM77-V-36">
          <mxGeometry relative="1" as="geometry" />
        </mxCell>
        <mxCell id="2b9cVBGXTiuE7diM77-V-19" value="Index" style="rounded=1;whiteSpace=wrap;html=1;fillColor=#ffe6cc;strokeColor=#d79b00;" vertex="1" parent="1">
          <mxGeometry x="410" y="530" width="110" height="40" as="geometry" />
        </mxCell>
        <mxCell id="2b9cVBGXTiuE7diM77-V-40" style="edgeStyle=orthogonalEdgeStyle;rounded=0;orthogonalLoop=1;jettySize=auto;html=1;" edge="1" parent="1" source="2b9cVBGXTiuE7diM77-V-20" target="2b9cVBGXTiuE7diM77-V-35">
          <mxGeometry relative="1" as="geometry" />
        </mxCell>
        <mxCell id="2b9cVBGXTiuE7diM77-V-41" style="edgeStyle=orthogonalEdgeStyle;rounded=0;orthogonalLoop=1;jettySize=auto;html=1;" edge="1" parent="1" source="2b9cVBGXTiuE7diM77-V-20" target="2b9cVBGXTiuE7diM77-V-34">
          <mxGeometry relative="1" as="geometry" />
        </mxCell>
        <mxCell id="2b9cVBGXTiuE7diM77-V-42" style="edgeStyle=orthogonalEdgeStyle;rounded=0;orthogonalLoop=1;jettySize=auto;html=1;" edge="1" parent="1" source="2b9cVBGXTiuE7diM77-V-20" target="2b9cVBGXTiuE7diM77-V-33">
          <mxGeometry relative="1" as="geometry" />
        </mxCell>
        <mxCell id="2b9cVBGXTiuE7diM77-V-20" value="Index" style="rounded=1;whiteSpace=wrap;html=1;fillColor=#fff2cc;strokeColor=#d6b656;" vertex="1" parent="1">
          <mxGeometry x="810" y="530" width="110" height="40" as="geometry" />
        </mxCell>
        <mxCell id="2b9cVBGXTiuE7diM77-V-33" value="Notifications" style="rounded=1;whiteSpace=wrap;html=1;fillColor=#fff2cc;strokeColor=#d6b656;" vertex="1" parent="1">
          <mxGeometry x="650" y="610" width="110" height="40" as="geometry" />
        </mxCell>
        <mxCell id="2b9cVBGXTiuE7diM77-V-34" value="Profile" style="rounded=1;whiteSpace=wrap;html=1;fillColor=#fff2cc;strokeColor=#d6b656;" vertex="1" parent="1">
          <mxGeometry x="810" y="610" width="110" height="40" as="geometry" />
        </mxCell>
        <mxCell id="2b9cVBGXTiuE7diM77-V-35" value="History" style="rounded=1;whiteSpace=wrap;html=1;fillColor=#fff2cc;strokeColor=#d6b656;" vertex="1" parent="1">
          <mxGeometry x="970" y="610" width="110" height="40" as="geometry" />
        </mxCell>
        <mxCell id="2b9cVBGXTiuE7diM77-V-36" value="Profile" style="rounded=1;whiteSpace=wrap;html=1;fillColor=#ffe6cc;strokeColor=#d79b00;" vertex="1" parent="1">
          <mxGeometry x="410" y="610" width="110" height="40" as="geometry" />
        </mxCell>
        <mxCell id="2b9cVBGXTiuE7diM77-V-38" value="Company" style="text;html=1;align=center;verticalAlign=middle;whiteSpace=wrap;rounded=0;" vertex="1" parent="1">
          <mxGeometry x="370" y="350" width="60" height="30" as="geometry" />
        </mxCell>
        <mxCell id="2b9cVBGXTiuE7diM77-V-39" value="User" style="text;html=1;align=center;verticalAlign=middle;whiteSpace=wrap;rounded=0;" vertex="1" parent="1">
          <mxGeometry x="880" y="350" width="60" height="30" as="geometry" />
        </mxCell>
      </root>
    </mxGraphModel>
  </diagram>
</mxfile>
